<svg width="24" height="24" viewBox="0 0 24 24" fill="none" xmlns="http://www.w3.org/2000/svg">
<path d="M12 6.99981C13.1046 6.99981 14 6.10442 14 4.99991C14 3.89539 13.1046 3 12 3C10.8954 3 10 3.89539 10 4.99991C10 6.10442 10.8954 6.99981 12 6.99981Z" fill="currentColor"/>
<path d="M12 13.9999C13.1046 13.9999 14 13.1045 14 12C14 10.8955 13.1046 10.0001 12 10.0001C10.8954 10.0001 10 10.8955 10 12C10 13.1045 10.8954 13.9999 12 13.9999Z" fill="currentColor"/>
<path d="M12 21C13.1046 21 14 20.1046 14 19.0001C14 17.8956 13.1046 17.0002 12 17.0002C10.8954 17.0002 10 17.8956 10 19.0001C10 20.1046 10.8954 21 12 21Z" fill="currentColor"/>
</svg>
