<svg width="24" height="24" viewBox="0 0 24 24" fill="none" xmlns="http://www.w3.org/2000/svg">
<path fill-rule="evenodd" clip-rule="evenodd" d="M16.95 6.78261C16.95 6.35039 17.3194 6 17.775 6H22.175C22.6306 6 23 6.35039 23 6.78261V10.9565C23 11.3887 22.6306 11.7391 22.175 11.7391C21.7194 11.7391 21.35 11.3887 21.35 10.9565V7.56522H17.775C17.3194 7.56522 16.95 7.21483 16.95 6.78261Z" fill="currentColor"/>
<path fill-rule="evenodd" clip-rule="evenodd" d="M22.7584 6.22922C23.0805 6.53485 23.0805 7.03037 22.7584 7.336L13.9584 15.6838C13.6362 15.9894 13.1138 15.9894 12.7916 15.6838L8.95213 12.0416L2.38458 17.7925C2.04978 18.0856 1.52784 18.0658 1.21879 17.7482C0.909743 17.4306 0.930621 16.9355 1.26542 16.6423L8.41542 10.3815C8.7408 10.0965 9.24525 10.1061 9.55837 10.4031L13.375 14.0237L21.5916 6.22922C21.9138 5.92359 22.4362 5.92359 22.7584 6.22922Z" fill="currentColor"/>
</svg>
