<svg width="24" height="24" viewBox="0 0 24 24" fill="none" xmlns="http://www.w3.org/2000/svg">
<path fill-rule="evenodd" clip-rule="evenodd" d="M12 0C12.5523 0 13 0.460507 13 1.02857V22.9714C13 23.5395 12.5523 24 12 24C11.4477 24 11 23.5395 11 22.9714V1.02857C11 0.460507 11.4477 0 12 0ZM20 8.22857C20.5523 8.22857 21 8.68908 21 9.25714V22.9714C21 23.5395 20.5523 24 20 24C19.4477 24 19 23.5395 19 22.9714V9.25714C19 8.68908 19.4477 8.22857 20 8.22857ZM4 13.7143C4.55228 13.7143 5 14.1748 5 14.7429V22.9714C5 23.5395 4.55228 24 4 24C3.44772 24 3 23.5395 3 22.9714V14.7429C3 14.1748 3.44772 13.7143 4 13.7143Z" fill="currentColor"/>
</svg>
