<svg width="24" height="24" viewBox="0 0 24 24" fill="none" xmlns="http://www.w3.org/2000/svg">
<path fill-rule="evenodd" clip-rule="evenodd" d="M19.1111 1C19.602 1 20 1.42213 20 1.94286V22.0571C20 22.5779 19.602 23 19.1111 23C18.6202 23 18.2222 22.5779 18.2222 22.0571V1.94286C18.2222 1.42213 18.6202 1 19.1111 1ZM12 8.54286C12.4909 8.54286 12.8889 8.96499 12.8889 9.48571V22.0571C12.8889 22.5779 12.4909 23 12 23C11.5091 23 11.1111 22.5779 11.1111 22.0571V9.48571C11.1111 8.96499 11.5091 8.54286 12 8.54286ZM4.88889 16.0857C5.37981 16.0857 5.77778 16.5078 5.77778 17.0286V22.0571C5.77778 22.5779 5.37981 23 4.88889 23C4.39797 23 4 22.5779 4 22.0571V17.0286C4 16.5078 4.39797 16.0857 4.88889 16.0857Z" fill="currentColor"/>
</svg>
