<svg width="75" height="16" viewBox="0 0 75 16" fill="none" xmlns="http://www.w3.org/2000/svg">
<g clip-path="url(#clip0_1165_14905)">
<path d="M3.44214 7.84249L1.73987 9.49675L0.0390625 7.84249L1.73987 6.18824L3.44214 7.84249ZM7.56909 3.82563L10.4837 6.66191L12.1845 5.00765L7.56909 0.518555L2.95367 5.00765L4.65448 6.66191L7.56909 3.82563ZM13.3998 6.18824L11.699 7.84249L13.3998 9.49675L15.0991 7.84249L13.3998 6.18824ZM7.56909 11.8594L4.65448 9.02451L2.95367 10.6773L7.56909 15.1664L12.1845 10.6773L10.4837 9.02451L7.56909 11.8594ZM7.56909 9.49675L9.26989 7.84249L7.56909 6.18824L5.86829 7.84249L7.56909 9.49675ZM25.5187 9.65559V9.6327C25.5187 8.55371 24.9302 8.01422 23.9724 7.65933C24.5609 7.33735 25.0582 6.8322 25.0582 5.92636V5.90347C25.0582 4.64131 24.0195 3.82563 22.3319 3.82563H18.5007V11.8594H22.429C24.2932 11.8594 25.5217 11.1252 25.5217 9.65559H25.5187ZM23.253 6.22115C23.253 6.81789 22.7454 7.07118 21.9435 7.07118H20.2707V5.37542H22.0642C22.8307 5.37542 23.2559 5.67307 23.2559 6.20112L23.253 6.22115ZM23.7135 9.43522C23.7135 10.0319 23.2294 10.3067 22.4261 10.3067H20.2707V8.54226H22.3702C23.303 8.54226 23.7164 8.87569 23.7164 9.41518L23.7135 9.43522ZM29.3367 11.8594V3.82563H27.5138V11.8594H29.3367ZM39.1046 11.8594V3.82563H37.3052V8.77266L33.4357 3.82563H31.7599V11.8594H33.5534V6.75206L37.5524 11.8594H39.1046ZM49.1696 11.8594L45.6238 3.76839H43.948L40.4096 11.8594H42.2619L43.0196 10.0577H46.5125L47.2672 11.8594H49.1696ZM45.8666 8.49647H43.6655L44.7631 5.89202L45.8666 8.49647ZM57.8311 11.8594V3.82563H56.0317V8.77266L52.1607 3.82563H50.4864V11.8594H52.2784V6.75206L56.2789 11.8594H57.8311ZM67.2105 10.5629L66.0555 9.42663C65.4067 9.99904 64.8285 10.3668 63.8839 10.3668C62.4685 10.3668 61.4887 9.22199 61.4887 7.84249V7.8196C61.4887 6.44296 62.4921 5.31818 63.8839 5.31818C64.7093 5.31818 65.3552 5.66163 65.9967 6.22402L67.1487 4.92752C66.3821 4.1934 65.4508 3.68826 63.8927 3.68826C61.3562 3.68826 59.5863 5.55859 59.5863 7.8382V7.8611C59.5863 10.1679 61.3916 11.9924 63.8221 11.9924C65.4126 11.9967 66.3557 11.4458 67.2046 10.5629H67.2105ZM74.9641 11.8594V10.2852H70.4738V8.59521H74.3683V7.02109H70.4738V5.39832H74.8994V3.8242H68.6685V11.8579L74.9641 11.8594Z" fill="currentColor"/>
</g>
<defs>
<clipPath id="clip0_1165_14905">
<rect width="75" height="15" fill="currentColor" transform="translate(0 0.5)"/>
</clipPath>
</defs>
</svg>
