<svg width="32" height="32" viewBox="0 0 32 32" fill="none" xmlns="http://www.w3.org/2000/svg">
<g clip-path="url(#clip0_694_350)">
<path d="M31.5 16.0004C31.5 24.5608 24.5604 31.5004 16 31.5004C7.43959 31.5004 0.5 24.5608 0.5 16.0004C0.5 7.43995 7.43959 0.500366 16 0.500366C24.5604 0.500366 31.5 7.43995 31.5 16.0004Z" stroke="#676678"/>
<path d="M13.0514 10.4157C13.4153 10.5209 13.7793 10.591 14.1432 10.6961C14.5072 10.8013 14.8711 10.8714 15.2351 10.9766C15.3344 11.0116 15.3674 10.9766 15.4005 10.8714C15.5329 10.2755 15.6652 9.71461 15.7976 9.11868C15.8307 9.01351 15.8637 8.97846 15.963 9.01351C16.2939 9.11868 16.5917 9.18879 16.9225 9.2589C17.0218 9.29395 17.0218 9.329 16.9887 9.39911C16.8563 9.95999 16.724 10.5559 16.5917 11.1168C16.5917 11.1519 16.5917 11.1869 16.5586 11.257C16.8233 11.3271 17.121 11.3972 17.3857 11.4673C17.4188 11.4673 17.4519 11.3972 17.485 11.3622C17.5843 10.9065 17.6835 10.4858 17.8159 10.0301L17.9151 9.60944C17.9151 9.53933 17.9482 9.50428 18.0144 9.53933C18.3453 9.6445 18.6761 9.71461 19.0401 9.81977C19.0732 9.81977 19.0732 9.85483 19.1062 9.85483C19.007 10.3105 18.9077 10.7312 18.8085 11.1519C18.7754 11.3271 18.7423 11.5024 18.6761 11.6777C18.643 11.7828 18.6761 11.8179 18.7754 11.8529L19.8672 12.3788C20.1981 12.5891 20.4959 12.8695 20.7275 13.2201C21.0253 13.7459 21.0584 14.3068 20.926 14.8677C20.8268 15.2533 20.6944 15.6038 20.4297 15.8842C20.2312 16.0946 19.9665 16.2348 19.7018 16.34C19.6687 16.34 19.6356 16.375 19.5695 16.375C19.7018 16.4802 19.8342 16.5503 19.9665 16.6555C20.3635 16.9709 20.6282 17.3565 20.7606 17.8473C20.8268 18.2329 20.7937 18.6536 20.6944 19.0392C20.5621 19.5299 20.3966 19.9506 20.0988 20.3362C19.7349 20.7919 19.2717 21.0373 18.7423 21.1074C18.0475 21.2126 17.3857 21.1425 16.724 21.0373C16.6247 21.0022 16.5586 21.0373 16.5255 21.1425C16.3931 21.7033 16.2608 22.2993 16.1284 22.8601C16.0954 23.0004 16.0954 23.0354 15.9299 22.9653C15.6321 22.8952 15.3013 22.79 15.0035 22.7199C14.9042 22.6849 14.9042 22.6498 14.9373 22.5797C15.0697 21.9838 15.202 21.3878 15.3674 20.827C15.3674 20.7569 15.4005 20.7218 15.3344 20.6868C15.0697 20.6166 14.805 20.5465 14.5072 20.4764C14.441 20.7919 14.3418 21.1074 14.2756 21.4229C14.2094 21.7384 14.1102 22.0539 14.044 22.3694C14.0109 22.4395 14.0109 22.4745 13.9116 22.4395C13.5808 22.3343 13.2499 22.2642 12.919 22.1941C12.8198 22.1591 12.8198 22.124 12.8529 22.0539C12.9852 21.458 13.1175 20.862 13.283 20.3011C13.283 20.2661 13.3161 20.231 13.3161 20.1609C12.5551 19.9506 11.7941 19.7403 11 19.5299C11.0662 19.3897 11.0993 19.2846 11.1654 19.1443C11.2978 18.8288 11.4301 18.5134 11.5294 18.2329C11.5625 18.1278 11.5956 18.1278 11.6948 18.1278C11.9264 18.1979 12.1911 18.268 12.4227 18.303C12.6874 18.3731 12.8859 18.2329 12.919 17.9875C13.3492 16.1997 13.7793 14.4119 14.1763 12.5891C14.2425 12.3087 14.0771 11.9932 13.7793 11.888C13.4815 11.7828 13.1837 11.7127 12.919 11.6426C12.8529 11.6426 12.8198 11.6076 12.8529 11.5375C12.9521 11.1519 13.0514 10.7312 13.1506 10.3456C13.0183 10.4508 13.0183 10.4508 13.0514 10.4157ZM14.7388 19.0742C14.7719 19.0742 14.805 19.1093 14.805 19.1093C15.3344 19.2495 15.8968 19.4248 16.4593 19.4598C16.8563 19.4949 17.2203 19.4949 17.5843 19.3547C18.2129 19.1443 18.4776 18.268 18.1136 17.7071C17.9482 17.4267 17.6835 17.2514 17.4188 17.0761C16.8233 16.7256 16.1284 16.5853 15.4667 16.4451C15.3674 16.4101 15.3674 16.4451 15.3344 16.5503C15.2682 16.9008 15.1689 17.2163 15.1028 17.5669C14.9704 18.0576 14.8711 18.5484 14.7388 19.0742ZM17.5181 15.4986C17.5843 15.4986 17.7497 15.4636 17.882 15.4285C18.5107 15.2883 18.8416 14.5171 18.5107 13.9212C18.3453 13.6057 18.0475 13.3954 17.7497 13.2551C17.2865 13.0448 16.8233 12.9396 16.327 12.7994C16.2277 12.7644 16.1946 12.7994 16.1615 12.9046C15.9961 13.6407 15.8307 14.3418 15.6321 15.078C15.5991 15.1481 15.6321 15.1832 15.6983 15.2182C15.8307 15.2533 15.9299 15.2883 16.0623 15.3234C16.5586 15.3935 16.9887 15.4986 17.5181 15.4986Z" fill="white"/>
</g>
<defs>
<clipPath id="clip0_694_350">
<rect width="32" height="32" fill="white"/>
</clipPath>
</defs>
</svg>
