<svg width="24" height="24" viewBox="0 0 24 24" fill="none" xmlns="http://www.w3.org/2000/svg">
<path d="M11.8875 23.7045C18.4528 23.7045 23.775 18.4642 23.775 11.9999C23.775 5.53562 18.4528 0.295288 11.8875 0.295288C5.32222 0.295288 0 5.53562 0 11.9999C0 18.4642 5.32222 23.7045 11.8875 23.7045Z" fill="#F5B300"/>
<path d="M8.66191 6.01823C9.07441 6.129 9.48691 6.20285 9.89941 6.31362C10.3119 6.42439 10.7244 6.49823 11.1369 6.609C11.2494 6.64593 11.2869 6.609 11.3244 6.49823C11.4744 5.87054 11.6244 5.27977 11.7744 4.65208C11.8119 4.54131 11.8494 4.50439 11.9619 4.54131C12.3369 4.65208 12.6744 4.72593 13.0494 4.79977C13.1619 4.8367 13.1619 4.87362 13.1244 4.94747C12.9744 5.53823 12.8244 6.16593 12.6744 6.7567C12.6744 6.79362 12.6744 6.83054 12.6369 6.90439C12.9369 6.97824 13.2744 7.05208 13.5744 7.12593C13.6119 7.12593 13.6494 7.05208 13.6869 7.01516C13.7994 6.53516 13.9119 6.09208 14.0619 5.61208L14.1744 5.169C14.1744 5.09516 14.2119 5.05824 14.2869 5.09516C14.6619 5.20593 15.0369 5.27977 15.4494 5.39054C15.4869 5.39054 15.4869 5.42747 15.5244 5.42747C15.4119 5.90747 15.2994 6.35054 15.1869 6.79362C15.1494 6.97823 15.1119 7.16285 15.0369 7.34747C14.9994 7.45823 15.0369 7.49516 15.1494 7.53208L16.3869 8.08593C16.7619 8.30747 17.0994 8.60285 17.3619 8.97208C17.6994 9.52593 17.7369 10.1167 17.5869 10.7075C17.4744 11.1136 17.3244 11.4828 17.0244 11.7782C16.7994 11.9998 16.4994 12.1475 16.1994 12.2582C16.1619 12.2582 16.1244 12.2952 16.0494 12.2952C16.1994 12.4059 16.3494 12.4798 16.4994 12.5905C16.9494 12.9228 17.2494 13.329 17.3994 13.8459C17.4744 14.2521 17.4369 14.6952 17.3244 15.1013C17.1744 15.6182 16.9869 16.0613 16.6494 16.4675C16.2369 16.9475 15.7119 17.2059 15.1119 17.2798C14.3244 17.3905 13.5744 17.3167 12.8244 17.2059C12.7119 17.169 12.6369 17.2059 12.5994 17.3167C12.4494 17.9075 12.2994 18.5352 12.1494 19.1259C12.1119 19.2736 12.1119 19.3105 11.9244 19.2367C11.5869 19.1628 11.2119 19.0521 10.8744 18.9782C10.7619 18.9413 10.7619 18.9044 10.7994 18.8305C10.9494 18.2028 11.0994 17.5752 11.2869 16.9844C11.2869 16.9105 11.3244 16.8736 11.2494 16.8367C10.9494 16.7628 10.6494 16.689 10.3119 16.6152C10.2369 16.9475 10.1244 17.2798 10.0494 17.6121C9.97441 17.9444 9.86191 18.2767 9.78691 18.609C9.74941 18.6828 9.74941 18.7198 9.63691 18.6828C9.26191 18.5721 8.88691 18.4982 8.51191 18.4244C8.39941 18.3875 8.39941 18.3505 8.43691 18.2767C8.58691 17.649 8.73691 17.0213 8.92441 16.4305C8.92441 16.3936 8.96191 16.3567 8.96191 16.2828C8.09941 16.0613 7.23691 15.8398 6.33691 15.6182C6.41191 15.4705 6.44941 15.3598 6.52441 15.2121C6.67441 14.8798 6.82441 14.5475 6.93691 14.2521C6.97441 14.1413 7.01191 14.1413 7.12441 14.1413C7.38691 14.2152 7.68691 14.289 7.94941 14.3259C8.24941 14.3998 8.47441 14.2521 8.51191 13.9936C8.99941 12.1105 9.48691 10.2275 9.93691 8.30747C10.0119 8.01208 9.82441 7.67977 9.48691 7.569C9.14941 7.45823 8.81191 7.38439 8.51191 7.31054C8.43691 7.31054 8.39941 7.27362 8.43691 7.19977C8.54941 6.79362 8.66191 6.35054 8.77441 5.94439C8.62441 6.05516 8.62441 6.05516 8.66191 6.01823ZM10.5744 15.1382C10.6119 15.1382 10.6494 15.1752 10.6494 15.1752C11.2494 15.3228 11.8869 15.5075 12.5244 15.5444C12.9744 15.5813 13.3869 15.5813 13.7994 15.4336C14.5119 15.2121 14.8119 14.289 14.3994 13.6982C14.2119 13.4028 13.9119 13.2182 13.6119 13.0336C12.9369 12.6644 12.1494 12.5167 11.3994 12.369C11.2869 12.3321 11.2869 12.369 11.2494 12.4798C11.1744 12.849 11.0619 13.1813 10.9869 13.5505C10.8369 14.0675 10.7244 14.5844 10.5744 15.1382ZM13.7244 11.3721C13.7994 11.3721 13.9869 11.3352 14.1369 11.2982C14.8494 11.1505 15.2244 10.3382 14.8494 9.71054C14.6619 9.37823 14.3244 9.1567 13.9869 9.009C13.4619 8.78747 12.9369 8.6767 12.3744 8.529C12.2619 8.49208 12.2244 8.529 12.1869 8.63977C11.9994 9.41516 11.8119 10.1536 11.5869 10.929C11.5494 11.0029 11.5869 11.0398 11.6619 11.0767C11.8119 11.1136 11.9244 11.1505 12.0744 11.1875C12.6369 11.2613 13.1244 11.3721 13.7244 11.3721Z" fill="white"/>
</svg>
