<svg width="24" height="24" viewBox="0 0 24 24" fill="none" xmlns="http://www.w3.org/2000/svg">
<path fill-rule="evenodd" clip-rule="evenodd" d="M4.61538 4C4.27552 4 4 4.27552 4 4.61538V10.359C4 10.6988 4.27552 10.9744 4.61538 10.9744H10.359C10.6988 10.9744 10.9744 10.6988 10.9744 10.359V4.61538C10.9744 4.27552 10.6988 4 10.359 4H4.61538ZM5.23077 9.74359V5.23077H9.74359V9.74359H5.23077ZM13.641 4C13.3012 4 13.0256 4.27552 13.0256 4.61538V10.359C13.0256 10.6988 13.3012 10.9744 13.641 10.9744H19.3846C19.7245 10.9744 20 10.6988 20 10.359V4.61538C20 4.27552 19.7245 4 19.3846 4H13.641ZM14.2564 9.74359V5.23077H18.7692V9.74359H14.2564ZM13.0256 13.641C13.0256 13.3012 13.3012 13.0256 13.641 13.0256H19.3846C19.7245 13.0256 20 13.3012 20 13.641V19.3846C20 19.7245 19.7245 20 19.3846 20H13.641C13.3012 20 13.0256 19.7245 13.0256 19.3846V13.641ZM14.2564 14.2564V18.7692H18.7692V14.2564H14.2564ZM4.61538 13.0256C4.27552 13.0256 4 13.3012 4 13.641V19.3846C4 19.7245 4.27552 20 4.61538 20H10.359C10.6988 20 10.9744 19.7245 10.9744 19.3846V13.641C10.9744 13.3012 10.6988 13.0256 10.359 13.0256H4.61538ZM5.23077 18.7692V14.2564H9.74359V18.7692H5.23077Z" fill="currentColor"/>
</svg>
