<svg width="24" height="24" viewBox="0 0 24 24" fill="none" xmlns="http://www.w3.org/2000/svg">
<path fill-rule="evenodd" clip-rule="evenodd" d="M3.19444 1.5C2.25863 1.5 1.5 2.25863 1.5 3.19444V7H22V3.19444C22 2.25863 21.2414 1.5 20.3056 1.5H3.19444ZM23.5 3.19444C23.5 1.4302 22.0698 0 20.3056 0H3.19444C1.4302 0 0 1.4302 0 3.19444V20.3056C0 22.0698 1.4302 23.5 3.19444 23.5H20.3056C22.0698 23.5 23.5 22.0698 23.5 20.3056V3.19444ZM22 8.5H8.5V22H20.3056C21.2414 22 22 21.2414 22 20.3056V8.5ZM7 22V8.5H1.5V20.3056C1.5 21.2414 2.25863 22 3.19444 22H7Z" fill="currentColor"/>
</svg>
