<svg width="75" height="15" viewBox="0 0 75 15" fill="none" xmlns="http://www.w3.org/2000/svg">
<g clip-path="url(#clip0_1783_10788)">
<path d="M10.0172 2.49701H9.59622V0H7.19931V2.49701H4.80241V0H2.39691V2.49701H0V4.99401H2.39691V9.99701H0V12.494H2.39691V15H4.79381V12.503H7.19072V15H9.58763V12.503H10.0086C12.6546 12.503 14.811 10.2665 14.811 7.5C14.8196 4.74252 12.6718 2.49701 10.0172 2.49701ZM10.0172 10.006H4.80241V5.00299H10.0258C11.3488 5.00299 12.4227 6.12575 12.4227 7.5C12.4227 8.88323 11.3402 10.006 10.0172 10.006Z" fill="currentColor"/>
<path d="M21.0824 3.66448H18.2044V11.1555H21.0824C23.0669 11.1555 24.5789 9.52975 24.5789 7.40999C24.5789 5.29023 23.0669 3.66448 21.0824 3.66448ZM21.0824 9.51179H19.8453V5.31717H21.0738C22.2078 5.31717 22.981 6.13454 22.981 7.41897C22.981 8.7034 22.2078 9.51179 21.0824 9.51179Z" fill="currentColor"/>
<path d="M26.8213 9.12486H30.4725C30.5154 8.91827 30.5326 8.71169 30.5326 8.47815C30.5326 6.86139 29.4244 5.64881 27.9209 5.64881C26.2972 5.64881 25.189 6.87935 25.189 8.47815C25.189 10.077 26.28 11.3075 28.0326 11.3075C29.012 11.3075 29.768 10.9302 30.2749 10.2027L29.0464 9.46618C28.8402 9.69971 28.4794 9.87037 28.0584 9.87037C27.4914 9.87935 27.0189 9.68175 26.8213 9.12486ZM26.7955 7.93025C26.9416 7.38234 27.3282 7.08594 27.9123 7.08594C28.3763 7.08594 28.8402 7.31049 29.0034 7.93025H26.7955Z" fill="currentColor"/>
<path d="M32.9466 6.763V5.8109H31.4088V11.1642H32.9466V8.73905C32.9466 7.67916 33.8486 7.4097 34.4844 7.51749V5.70312C33.84 5.70312 33.1528 6.04443 32.9466 6.763Z" fill="currentColor"/>
<path d="M35.979 5.33454C36.4858 5.33454 36.9068 4.89442 36.9068 4.37347C36.9068 3.85251 36.4858 3.41239 35.979 3.41239C35.4721 3.41239 35.0511 3.85251 35.0511 4.37347C35.0511 4.89442 35.4721 5.33454 35.979 5.33454ZM35.2058 11.1639H36.7436V5.81059H35.2058V11.1639Z" fill="currentColor"/>
<path d="M40.9539 5.65849C40.2666 5.65849 39.7597 5.90101 39.4247 6.31418V3.66448H37.8869V11.1555H39.4247V10.6525C39.7597 11.0567 40.2666 11.3082 40.9539 11.3082C42.3027 11.3082 43.4109 10.0777 43.4109 8.47885C43.4023 6.88903 42.2941 5.65849 40.9539 5.65849ZM40.6446 9.79023C39.9315 9.79023 39.4247 9.28723 39.4247 8.48783C39.4247 7.68843 39.9401 7.18544 40.6446 7.18544C41.3576 7.18544 41.8645 7.68843 41.8645 8.48783C41.8645 9.28723 41.3491 9.79023 40.6446 9.79023Z" fill="currentColor"/>
<path d="M45.0518 5.33454C45.5586 5.33454 45.9796 4.89442 45.9796 4.37347C45.9796 3.85251 45.5586 3.41239 45.0518 3.41239C44.5449 3.41239 44.1239 3.85251 44.1239 4.37347C44.1239 4.89442 44.5449 5.33454 45.0518 5.33454ZM44.2786 11.1639H45.8164V5.81059H44.2786V11.1639Z" fill="currentColor"/>
<path d="M49.9659 7.34806V5.81213H48.9091V4.31213L47.3713 4.79716V5.81213H46.5466V7.35704H47.3713V9.25225C47.3713 10.7523 47.9555 11.381 49.9744 11.1654V9.70136C49.2957 9.74627 48.9177 9.70136 48.9177 9.24327V7.34806H49.9659Z" fill="currentColor"/>
</g>
<defs>
<clipPath id="clip0_1783_10788">
<rect width="75" height="15" fill="currentColor"/>
</clipPath>
</defs>
</svg>
