<svg width="32" height="32" viewBox="0 0 32 32" fill="none" xmlns="http://www.w3.org/2000/svg">
<g clip-path="url(#clip0_698_753)">
<path d="M31.5 16.0004C31.5 24.5608 24.5604 31.5004 16 31.5004C7.43959 31.5004 0.5 24.5608 0.5 16.0004C0.5 7.43995 7.43959 0.500366 16 0.500366C24.5604 0.500366 31.5 7.43995 31.5 16.0004Z" stroke="#676678"/>
<path d="M15.9968 8L15.8721 8.36451V18.9419L15.9968 19.0489L21.7087 16.1467L15.9968 8Z" fill="white"/>
<path d="M15.997 8L10.2852 16.1467L15.997 19.049V13.915V8Z" fill="white"/>
<path d="M15.9971 19.9786L15.9268 20.0523V23.8202L15.9971 23.9967L21.7123 17.0779L15.9971 19.9786Z" fill="white"/>
<path d="M15.997 23.9967V19.9786L10.2852 17.0779L15.997 23.9967Z" fill="white"/>
<path d="M15.998 19.0493L21.7098 16.1471L15.998 13.9154V19.0493Z" fill="white"/>
<path d="M10.2852 16.1466L15.9969 19.0488V13.9149L10.2852 16.1466Z" fill="white"/>
</g>
<defs>
<clipPath id="clip0_698_753">
<rect width="32" height="32" fill="white"/>
</clipPath>
</defs>
</svg>
