<svg width="24" height="24" viewBox="0 0 24 24" fill="none" xmlns="http://www.w3.org/2000/svg">
<path d="M11.8875 23.7045C18.4528 23.7045 23.775 18.4642 23.775 11.9999C23.775 5.53562 18.4528 0.295288 11.8875 0.295288C5.32222 0.295288 0 5.53562 0 11.9999C0 18.4642 5.32222 23.7045 11.8875 23.7045Z" fill="white"/>
<g clip-path="url(#clip0_838_16016)">
<path d="M11.9988 5L11.8896 5.31895V14.574L11.9988 14.6677L16.9966 12.1283L11.9988 5Z" fill="#343434"/>
<path d="M11.9988 5L7.00098 12.1283L11.9988 14.6677V10.1756V5Z" fill="#8C8C8C"/>
<path d="M11.998 15.4811L11.9365 15.5456V18.8424L11.998 18.9969L16.9988 12.943L11.998 15.4811Z" fill="#3C3C3B"/>
<path d="M11.9978 18.997V15.4812L7 12.9431L11.9978 18.997Z" fill="#8C8C8C"/>
<path d="M11.999 14.6677L16.9967 12.1283L11.999 10.1757V14.6677Z" fill="#141414"/>
<path d="M7 12.1282L11.9977 14.6676V10.1755L7 12.1282Z" fill="#393939"/>
</g>
<defs>
<clipPath id="clip0_838_16016">
<rect width="10" height="14" fill="white" transform="translate(7 5)"/>
</clipPath>
</defs>
</svg>
