<svg width="75" height="15" viewBox="0 0 75 15" fill="none" xmlns="http://www.w3.org/2000/svg">
<path d="M8.813 9.69153H6.16787V12.3366H8.813V9.69153Z" fill="currentColor"/>
<path d="M6.16787 6.16476V8.80988H11.4581V6.16476H6.16787Z" fill="currentColor"/>
<path d="M14.1031 2.63795H6.16787V5.28302H14.1031V2.63795Z" fill="currentColor"/>
<path d="M5.28569 6.16481H2.64062V8.80988H5.28569V6.16481Z" fill="currentColor"/>
<path d="M16.7471 12.3372H18.7977V8.33059H22.7428V6.63984H18.7977V4.32869H23.169V2.63794H16.7471V12.3372Z" fill="currentColor"/>
<path d="M24.1797 4.32869H27.1492V12.3372H29.1761V4.32869H32.1456V2.63794H24.1797V4.32869Z" fill="currentColor"/>
<path d="M35.3803 2.63794H33.0549L36.0338 7.48759L32.998 12.3372H35.3471L37.3363 9.0268H37.412L39.4011 12.3372H41.7596L38.7334 7.48759L41.6933 2.63794H39.3774L37.412 5.94368H37.3363L35.3803 2.63794Z" fill="currentColor"/>
</svg>
