<svg width="24" height="24" viewBox="0 0 24 24" fill="none" xmlns="http://www.w3.org/2000/svg">
<path fill-rule="evenodd" clip-rule="evenodd" d="M2.25 11.75C2.25 11.3358 2.58579 11 3 11H21C21.4142 11 21.75 11.3358 21.75 11.75C21.75 12.1642 21.4142 12.5 21 12.5H3C2.58579 12.5 2.25 12.1642 2.25 11.75Z" fill="currentColor"/>
<path fill-rule="evenodd" clip-rule="evenodd" d="M2.25 5.75C2.25 5.33579 2.58579 5 3 5H21C21.4142 5 21.75 5.33579 21.75 5.75C21.75 6.16421 21.4142 6.5 21 6.5H3C2.58579 6.5 2.25 6.16421 2.25 5.75Z" fill="currentColor"/>
<path fill-rule="evenodd" clip-rule="evenodd" d="M2.25 17.75C2.25 17.3358 2.58579 17 3 17H21C21.4142 17 21.75 17.3358 21.75 17.75C21.75 18.1642 21.4142 18.5 21 18.5H3C2.58579 18.5 2.25 18.1642 2.25 17.75Z" fill="currentColor"/>
</svg>
