<svg width="24" height="24" viewBox="0 0 24 24" fill="none" xmlns="http://www.w3.org/2000/svg">
<path fill-rule="evenodd" clip-rule="evenodd" d="M11.4082 0.245266C11.5652 0.0882249 11.7782 0 12.0002 0C13.5761 0 15.1365 0.310457 16.5923 0.913644C18.0482 1.51683 19.3711 2.40094 20.4853 3.51548C21.5996 4.63003 22.4835 5.95318 23.0866 7.40941C23.6896 8.86563 24 10.4264 24 12.0026C24 12.4651 23.6252 12.84 23.1628 12.84H12.0002C11.5379 12.84 11.163 12.4651 11.163 12.0026V0.837391C11.163 0.615301 11.2512 0.402308 11.4082 0.245266ZM12.8374 1.70879V11.1652H22.2916C22.2046 10.0958 21.9514 9.04474 21.5396 8.05032C21.0207 6.79729 20.2602 5.65876 19.3014 4.69973C18.3426 3.74071 17.2043 2.97996 15.9516 2.46094C14.9574 2.04904 13.9066 1.79578 12.8374 1.70879ZM8.30251 1.42918C8.48744 1.85306 8.29381 2.34663 7.87004 2.5316C6.3242 3.20634 4.96715 4.24956 3.91752 5.57008C2.8679 6.89059 2.15765 8.44818 1.84889 10.1067C1.54012 11.7652 1.64223 13.4741 2.1463 15.084C2.65036 16.6939 3.54103 18.1558 4.74043 19.3418C5.93983 20.5279 7.41145 21.402 9.02663 21.8878C10.6418 22.3736 12.3514 22.4562 14.0058 22.1284C15.6603 21.8007 17.2093 21.0725 18.5174 20.0076C19.8256 18.9427 20.853 17.5735 21.5099 16.0197C21.6899 15.5938 22.1812 15.3945 22.607 15.5746C23.0329 15.7547 23.2321 16.2461 23.052 16.672C22.2886 18.4778 21.0946 20.069 19.5744 21.3066C18.0541 22.5441 16.2539 23.3904 14.3311 23.7713C12.4084 24.1522 10.4216 24.0562 8.5445 23.4916C6.6674 22.9271 4.95714 21.9112 3.56324 20.5328C2.16934 19.1544 1.13424 17.4555 0.548436 15.5845C-0.0373684 13.7135 -0.156039 11.7275 0.202797 9.80008C0.561634 7.87264 1.38705 6.06246 2.60689 4.52781C3.82673 2.99316 5.40384 1.78076 7.20035 0.996608C7.62413 0.811635 8.11758 1.0053 8.30251 1.42918Z" fill="currentColor"/>
</svg>
