<svg width="24" height="24" viewBox="0 0 24 24" fill="none" xmlns="http://www.w3.org/2000/svg">
<path fill-rule="evenodd" clip-rule="evenodd" d="M14.0769 3.69231C14.0769 3.30996 14.3869 3 14.7692 3H20.3077C20.69 3 21 3.30996 21 3.69231V9.23077C21 9.61312 20.69 9.92308 20.3077 9.92308C19.9253 9.92308 19.6154 9.61312 19.6154 9.23077V4.38462H14.7692C14.3869 4.38462 14.0769 4.07466 14.0769 3.69231Z" fill="currentColor"/>
<path fill-rule="evenodd" clip-rule="evenodd" d="M3.69231 14.0769C4.07466 14.0769 4.38462 14.3869 4.38462 14.7692V19.6154H9.23077C9.61312 19.6154 9.92308 19.9253 9.92308 20.3077C9.92308 20.69 9.61312 21 9.23077 21H3.69231C3.30996 21 3 20.69 3 20.3077V14.7692C3 14.3869 3.30996 14.0769 3.69231 14.0769Z" fill="currentColor"/>
<path fill-rule="evenodd" clip-rule="evenodd" d="M20.7972 3.20277C21.0676 3.47314 21.0676 3.91148 20.7972 4.18184L14.3357 10.6434C14.0653 10.9137 13.627 10.9137 13.3566 10.6434C13.0863 10.373 13.0863 9.93467 13.3566 9.66431L19.8182 3.20277C20.0885 2.93241 20.5269 2.93241 20.7972 3.20277Z" fill="currentColor"/>
<path fill-rule="evenodd" clip-rule="evenodd" d="M10.6434 13.3566C10.9137 13.627 10.9137 14.0653 10.6434 14.3357L4.18184 20.7972C3.91148 21.0676 3.47314 21.0676 3.20277 20.7972C2.93241 20.5269 2.93241 20.0885 3.20277 19.8182L9.66431 13.3566C9.93467 13.0863 10.373 13.0863 10.6434 13.3566Z" fill="currentColor"/>
</svg>
