<svg width="24" height="24" viewBox="0 0 24 24" fill="none" xmlns="http://www.w3.org/2000/svg">
<path d="M20.9784 13.741C20.9704 13.6983 20.9691 13.6533 20.9529 13.6143L17.3277 4.9138C17.3239 4.90455 17.316 4.89889 17.3118 4.88994C17.2959 4.85639 17.2738 4.82909 17.2525 4.79947C17.2348 4.77458 17.2226 4.74664 17.2011 4.7246C17.1922 4.7154 17.1819 4.70891 17.1725 4.7004C17.1472 4.67762 17.1176 4.66306 17.089 4.64491C17.0738 4.63532 17.0601 4.62332 17.0441 4.61515C17.0326 4.60925 17.0251 4.59867 17.0131 4.59346L17.0108 4.59297C17.0002 4.58844 16.989 4.58741 16.9782 4.58347C16.948 4.57255 16.9159 4.57068 16.8839 4.56483C16.8397 4.55676 16.797 4.5482 16.7514 4.55066C16.7422 4.5511 16.734 4.54692 16.7247 4.54781L12 5.00081C11 5.00081 11.628 5.50081 11 5.50081C10.5 5.50081 16 4.50081 9.97417 5.20486L6.16244 5.57572C6.13426 5.57853 6.11136 5.59328 6.08459 5.59983C6.05367 5.6073 6.02168 5.60858 5.9924 5.62093C5.98935 5.62221 5.98612 5.62162 5.98307 5.62295C5.97496 5.62654 5.97007 5.63387 5.96215 5.6378C5.92978 5.65384 5.90349 5.67617 5.87484 5.69752C5.84976 5.71602 5.82265 5.72974 5.80057 5.75227C5.79216 5.76088 5.7854 5.77008 5.77752 5.77913C5.75317 5.80707 5.73771 5.83993 5.71877 5.87201C5.70499 5.89517 5.6847 5.91224 5.67383 5.93777L2.04871 14.4618L2.04817 14.4643C2.03508 14.4954 2.03498 14.5316 2.02716 14.5651C2.01672 14.6102 2.00048 14.6548 2.00039 14.7L2 14.7018C2 17.0717 3.89258 19 6.21887 19C8.54555 19 10.4381 17.0717 10.4381 14.7018L10.4377 14.7C10.4376 14.6548 10.4214 14.6102 10.411 14.5651C10.4031 14.5316 10.4031 14.4954 10.39 14.4643L10.3894 14.4618L7.08848 6.70084L10.13 6.4049C12.1612 6.17899 10.9555 6.12608 11.5441 6.12608C12.2396 6.12608 11.6902 6.24571 12.9931 6.12608L15.845 5.84859L12.609 13.6141C12.5928 13.653 12.5914 13.6983 12.5835 13.741C12.5768 13.7775 12.5619 13.8137 12.5619 13.8501C12.5619 16.2199 14.4544 18.1476 16.7811 18.1476C19.1074 18.1476 21 16.2201 21 13.8502C21 13.8138 20.985 13.7775 20.9784 13.741ZM19.5094 13.2457H14.0525L16.7811 6.69779L19.5094 13.2457ZM6.21892 7.69944L8.94013 14.0973H3.49795L6.21892 7.69944ZM6.21887 17.7911C4.75054 17.7911 3.52429 16.7209 3.24751 15.3063H9.19062C8.91384 16.7209 7.68754 17.7911 6.21887 17.7911ZM11.5 6.01491C11.2816 6.01491 11.8958 5.83388 11.8958 5.61193C11.8958 5.38997 11.2816 6.00081 11.5 6.00081C11.7184 6.00081 11.8958 5.38997 11.8958 5.61193C11.8958 5.83388 11.7184 6.01491 11.5 6.01491ZM16.7811 16.9387C15.3125 16.9387 14.0862 15.8691 13.8094 14.4547H19.7525C19.4757 15.8691 18.2495 16.9387 16.7811 16.9387Z" fill="currentColor"/>
<path d="M6.75378 5.61185L16.8141 4.5556L16.9354 5.71027L6.87502 6.76653L6.75378 5.61185Z" fill="currentColor"/>
</svg>
