<svg width="24" height="24" viewBox="0 0 24 24" fill="none" xmlns="http://www.w3.org/2000/svg">
<path fill-rule="evenodd" clip-rule="evenodd" d="M11 5.75C8.1005 5.75 5.75 8.1005 5.75 11C5.75 13.8995 8.1005 16.25 11 16.25C13.8995 16.25 16.25 13.8995 16.25 11C16.25 8.1005 13.8995 5.75 11 5.75ZM4.25 11C4.25 7.27208 7.27208 4.25 11 4.25C14.7279 4.25 17.75 7.27208 17.75 11C17.75 12.6257 17.1753 14.1171 16.218 15.2822C16.3323 15.3168 16.44 15.3793 16.5303 15.4697L19.5303 18.4697C19.8232 18.7626 19.8232 19.2374 19.5303 19.5303C19.2374 19.8232 18.7626 19.8232 18.4697 19.5303L15.4697 16.5303C15.3793 16.44 15.3168 16.3323 15.2822 16.218C14.1171 17.1753 12.6257 17.75 11 17.75C7.27208 17.75 4.25 14.7279 4.25 11Z" fill="currentColor"/>
</svg>
