<svg width="24" height="24" viewBox="0 0 24 24" fill="none" xmlns="http://www.w3.org/2000/svg">
<path fill-rule="evenodd" clip-rule="evenodd" d="M12 9.21502C10.4706 9.21502 9.23077 10.4619 9.23077 12C9.23077 13.5381 10.4706 14.785 12 14.785C13.5294 14.785 14.7692 13.5381 14.7692 12C14.7692 10.4619 13.5294 9.21502 12 9.21502ZM7.38462 12C7.38462 9.4365 9.45099 7.35838 12 7.35838C14.549 7.35838 16.6154 9.4365 16.6154 12C16.6154 14.5635 14.549 16.6416 12 16.6416C9.45099 16.6416 7.38462 14.5635 7.38462 12Z" fill="currentColor"/>
<path fill-rule="evenodd" clip-rule="evenodd" d="M12.0385 1.85779C11.4325 1.88322 10.9091 2.28096 10.9091 3.05523L10.9091 3.05893C10.9042 4.28616 10.1048 5.13434 9.18267 5.4613C8.28097 5.78103 7.14941 5.64723 6.3526 4.8459C5.94336 4.43388 5.22089 4.43044 4.8086 4.84553C4.50231 5.15322 4.4053 5.6404 4.57108 6.0426C4.62121 6.1642 4.69569 6.2576 4.86468 6.46948C4.89345 6.50556 4.92496 6.54507 4.95955 6.58873C5.16336 6.846 5.46827 7.24939 5.57132 7.82095C5.86977 9.47631 4.57207 10.9814 2.93706 10.9814C2.34991 10.9814 1.84615 11.4881 1.84615 12.0785C1.84615 12.669 2.34991 13.1757 2.93706 13.1757C4.07212 13.1757 5.00536 13.8279 5.43124 14.7282C5.86874 15.6531 5.75288 16.808 4.88879 17.677C4.61569 17.9514 4.55304 18.2128 4.56991 18.4348C4.58874 18.6823 4.71483 18.9557 4.93829 19.1804C5.16174 19.4051 5.43354 19.5319 5.67972 19.5509C5.90038 19.5678 6.15999 19.5052 6.4328 19.2305C7.16259 18.4966 8.28452 18.1826 9.32499 18.6307C10.3813 19.0348 10.9897 20.0541 10.9897 21.112C10.9897 21.5024 11.1298 21.7326 11.2978 21.8779C11.4851 22.0399 11.7657 22.1434 12.0806 22.1434C12.3954 22.1434 12.6761 22.0399 12.8633 21.8779C13.0313 21.7326 13.1715 21.5024 13.1715 21.112C13.1715 20.0208 13.7933 19.0861 14.6449 18.6307C15.5372 18.1537 16.6892 18.2052 17.5797 19.0812L17.587 19.0884C17.7382 19.2404 17.8706 19.333 18.0018 19.3877C18.2645 19.4972 18.5747 19.4972 18.8373 19.3877C18.9698 19.3324 19.0901 19.2515 19.1914 19.1495C19.2928 19.0476 19.374 18.9259 19.4289 18.7927C19.4838 18.6595 19.5121 18.5168 19.5121 18.3726C19.5121 18.2284 19.4838 18.0856 19.4289 17.9525C19.374 17.8193 19.2936 17.6983 19.1921 17.5964L19.1241 17.528C18.763 17.1567 18.5208 16.6851 18.4287 16.1741C18.3368 15.6647 18.3983 15.1394 18.6053 14.6654C18.804 14.2015 19.133 13.8058 19.5518 13.5268C19.9721 13.2469 20.4646 13.0967 20.9686 13.0946L20.9723 13.0946L21.0629 13.0946C21.3523 13.0946 21.6297 12.979 21.8343 12.7733C22.0389 12.5676 22.1538 12.2885 22.1538 11.9975C22.1538 11.7066 22.0389 11.4275 21.8343 11.2218C21.6242 11.0104 21.3323 10.9004 20.8917 10.9004L20.8881 10.9004C20.384 10.8984 19.8915 10.7482 19.4713 10.4683C19.051 10.1884 18.7213 9.79101 18.5228 9.32507C18.5036 9.28018 18.488 9.23384 18.4762 9.18649C18.4658 9.14503 18.455 9.10359 18.4442 9.06193C18.3477 8.68976 18.247 8.30101 18.3481 7.73993C18.4403 7.2289 18.6825 6.75734 19.0436 6.38607L19.0507 6.37875L19.1112 6.31803C19.918 5.50753 18.9765 4.08647 17.9213 4.52638C17.7901 4.58108 17.6576 4.67361 17.5064 4.82564L17.4992 4.83289C16.6452 5.673 15.5105 5.74036 14.6265 5.31825C13.7615 4.90521 13.0909 4.00522 13.0909 2.88307C13.0909 2.4548 12.9421 2.22217 12.7857 2.08814C12.6105 1.93791 12.3449 1.84493 12.0385 1.85779ZM13.9835 0.675259C14.5824 1.18877 14.9371 1.95366 14.9371 2.88307C14.9371 3.22434 15.1377 3.50707 15.4184 3.64107C15.679 3.76551 15.9629 3.74492 16.2054 3.50837C16.4709 3.24215 16.7983 2.98468 17.2143 2.81126C20.1343 1.59393 22.6546 5.38271 20.4163 7.63124L20.3606 7.68727L20.3634 7.68436L20.3562 7.69163L20.3606 7.68727C20.2589 7.79289 20.1907 7.9265 20.1647 8.07117C20.147 8.16934 20.1495 8.21662 20.1576 8.27142C20.1632 8.30981 20.1732 8.35961 20.192 8.43787C20.2044 8.48898 20.2168 8.53789 20.2318 8.59659C20.2358 8.61234 20.24 8.62879 20.2445 8.64617C20.2355 8.62905 20.2272 8.61154 20.2196 8.59368L20.2662 8.73226C20.2583 8.70089 20.2511 8.67246 20.2445 8.64617C20.3021 8.75667 20.3867 8.85107 20.4906 8.92031C20.6103 9.00002 20.7505 9.04292 20.894 9.04377L20.8917 9.04377L20.8954 9.04378L20.894 9.04377C21.6509 9.04416 22.4785 9.24393 23.1398 9.9089C23.6906 10.4628 24 11.2141 24 11.9975C24 12.7809 23.6906 13.5322 23.1398 14.0861C22.5889 14.6401 21.8419 14.9513 21.0629 14.9513H20.9746L20.976 14.9513L20.9723 14.9513H20.9746C20.831 14.9521 20.6909 14.995 20.5712 15.0747C20.4511 15.1547 20.3569 15.2683 20.3002 15.4014L20.2963 15.4105C20.2367 15.5463 20.2189 15.6969 20.2452 15.8429C20.2713 15.9875 20.3395 16.1211 20.4411 16.2267L20.4368 16.2224L20.4439 16.2297L20.4411 16.2267L20.4968 16.2828C20.7699 16.5571 20.9865 16.8829 21.1343 17.2415C21.2822 17.6 21.3582 17.9844 21.3582 18.3726C21.3582 18.7608 21.2822 19.1451 21.1343 19.5037C20.9866 19.8621 20.7701 20.1878 20.4972 20.462C20.2245 20.7365 19.9007 20.9542 19.5443 21.1028C18.829 21.401 18.0102 21.401 17.2949 21.1028C16.8788 20.9293 16.5514 20.6719 16.2859 20.4056L16.2888 20.4084L16.2816 20.4012L16.2859 20.4056C16.0144 20.1403 15.7476 20.1439 15.5116 20.2701C15.2341 20.4185 15.0176 20.7394 15.0176 21.112C15.0176 22.028 14.6543 22.7777 14.0671 23.2856C13.4991 23.7769 12.7727 24 12.0806 24C11.3884 24 10.6621 23.7769 10.094 23.2856C9.50683 22.7777 9.1435 22.028 9.1435 21.112C9.1435 20.749 8.94029 20.4664 8.66039 20.3629C8.64214 20.3562 8.62411 20.3488 8.60631 20.3409C8.33808 20.2219 8.0026 20.2777 7.73895 20.5427C7.09536 21.1905 6.31107 21.4615 5.53894 21.4021C4.79225 21.3447 4.12211 20.9853 3.63286 20.4932C3.14361 20.0012 2.78624 19.3273 2.72913 18.5763C2.67008 17.7997 2.9394 17.0111 3.58373 16.3638C3.87354 16.0721 3.87912 15.7689 3.76412 15.5258C3.63743 15.258 3.34404 15.0323 2.93706 15.0323C1.33031 15.0323 0 13.6944 0 12.0785C0 10.4627 1.33031 9.12479 2.93706 9.12479C3.44545 9.12479 3.8434 8.64368 3.75479 8.15219C3.73916 8.0655 3.69358 7.97028 3.51565 7.74568C3.49706 7.72221 3.47551 7.69575 3.45169 7.66649C3.29106 7.46916 3.02681 7.14456 2.86566 6.75358C2.41378 5.65733 2.66812 4.37185 3.50281 3.53305C4.64059 2.38794 6.53218 2.39995 7.65803 3.53305C7.88085 3.75713 8.23657 3.8281 8.56878 3.7103C8.87999 3.59995 9.06098 3.36899 9.06294 3.05338V3.05523L9.06295 3.05153L9.06294 3.05338C9.06388 1.10719 10.554 0.0618168 11.9615 0.00275566C12.6621 -0.0266416 13.4035 0.177945 13.9835 0.675259Z" fill="currentColor"/>
</svg>
