<svg width="24" height="24" viewBox="0 0 24 24" fill="none" xmlns="http://www.w3.org/2000/svg">
<path fill-rule="evenodd" clip-rule="evenodd" d="M6 4C6.55228 4 7 4.44772 7 5L7 14C7 14.5523 6.55229 15 6 15C5.44772 15 5 14.5523 5 14L5 5C5 4.44772 5.44772 4 6 4Z" fill="#42AD87"/>
<path fill-rule="evenodd" clip-rule="evenodd" d="M5 18C5 17.4477 5.44772 17 6 17H6.01C6.56228 17 7.01 17.4477 7.01 18C7.01 18.5523 6.56228 19 6.01 19H6C5.44772 19 5 18.5523 5 18Z" fill="#42AD87"/>
<path fill-rule="evenodd" clip-rule="evenodd" d="M10 4C10.5523 4 11 4.44772 11 5L11 14C11 14.5523 10.5523 15 10 15C9.44772 15 9 14.5523 9 14L9 5C9 4.44772 9.44772 4 10 4Z" fill="#474657"/>
<path fill-rule="evenodd" clip-rule="evenodd" d="M9.00977 18C9.00977 17.4477 9.45748 17 10.0098 17H10.0198C10.5721 17 11.0198 17.4477 11.0198 18C11.0198 18.5523 10.5721 19 10.0198 19H10.0098C9.45748 19 9.00977 18.5523 9.00977 18Z" fill="#474657"/>
<path fill-rule="evenodd" clip-rule="evenodd" d="M14 4C14.5523 4 15 4.44772 15 5L15 14C15 14.5523 14.5523 15 14 15C13.4477 15 13 14.5523 13 14L13 5C13 4.44772 13.4477 4 14 4Z" fill="#474657"/>
<path fill-rule="evenodd" clip-rule="evenodd" d="M13.0195 18C13.0195 17.4477 13.4672 17 14.0195 17H14.0295C14.5818 17 15.0295 17.4477 15.0295 18C15.0295 18.5523 14.5818 19 14.0295 19H14.0195C13.4672 19 13.0195 18.5523 13.0195 18Z" fill="#474657"/>
<path fill-rule="evenodd" clip-rule="evenodd" d="M18 4C18.5523 4 19 4.44772 19 5L19 14C19 14.5523 18.5523 15 18 15C17.4477 15 17 14.5523 17 14L17 5C17 4.44772 17.4477 4 18 4Z" fill="#474657"/>
<path fill-rule="evenodd" clip-rule="evenodd" d="M17.0293 18C17.0293 17.4477 17.477 17 18.0293 17H18.0393C18.5916 17 19.0393 17.4477 19.0393 18C19.0393 18.5523 18.5916 19 18.0393 19H18.0293C17.477 19 17.0293 18.5523 17.0293 18Z" fill="#474657"/>
</svg>
