<svg width="24" height="24" viewBox="0 0 24 24" fill="none" xmlns="http://www.w3.org/2000/svg">
<path fill-rule="evenodd" clip-rule="evenodd" d="M13.205 1.84617C11.4538 1.84862 9.84558 2.10162 8.35464 2.8547L8.35114 2.85647C6.76692 3.64824 5.43442 4.86543 4.5029 6.37172C3.57138 7.87801 3.07763 9.6139 3.07694 11.385L3.07694 11.387C3.07308 12.8661 3.41865 14.3251 4.08549 15.6453C4.19645 15.865 4.21509 16.1199 4.13726 16.3534L2.38261 21.6174L7.64656 19.8627C7.88005 19.7849 8.13495 19.8035 8.35464 19.9145C9.67485 20.5813 11.1339 20.9269 12.613 20.9231L12.615 20.9231C14.3861 20.9224 16.122 20.4286 17.6283 19.4971C19.1345 18.5656 20.3517 17.2331 21.1435 15.6489L21.1453 15.6453C21.8121 14.3251 22.1577 12.8661 22.1538 11.387L22.1538 10.7953C22.0192 8.46599 21.0333 6.26704 19.3831 4.61684C17.733 2.96672 15.5342 1.98084 13.205 1.84617ZM7.52408 1.20593C9.36662 0.27571 11.2971 0 13.2308 0C13.2477 0 13.2647 0.000467373 13.2816 0.00140153C16.0738 0.155447 18.7111 1.334 20.6886 3.31142C22.666 5.28883 23.8445 7.92614 23.9986 10.7184C23.9995 10.7353 24 10.7523 24 10.7692L24 11.3822C24 11.3825 24 11.3819 24 11.3822C24.0044 13.151 23.5913 14.8969 22.794 16.4759C21.849 18.366 20.3966 19.9558 18.5993 21.0673C16.8017 22.1789 14.7302 22.7682 12.6168 22.7692C10.9779 22.7733 9.35952 22.4189 7.87465 21.7327L1.215 23.9526C0.883309 24.0632 0.517617 23.9768 0.270387 23.7296C0.0231581 23.4824 -0.0631701 23.1167 0.0473942 22.785L2.26728 16.1253C1.58108 14.6405 1.22667 13.0221 1.23079 11.3832C1.2318 9.26974 1.82111 7.19824 2.93275 5.4007C4.04422 3.60341 5.63399 2.15097 7.52408 1.20593ZM7.52408 1.20593C7.52348 1.20623 7.52289 1.20653 7.5223 1.20683L7.93847 2.03077L7.5258 1.20507C7.52522 1.20536 7.52465 1.20565 7.52408 1.20593Z" fill="currentColor"/>
</svg>
