<svg width="24" height="24" viewBox="0 0 24 24" fill="none" xmlns="http://www.w3.org/2000/svg">
<path fill-rule="evenodd" clip-rule="evenodd" d="M21.75 8.8C21.75 6.83939 20.1606 5.25 18.2 5.25H5.8C3.83939 5.25 2.25 6.83939 2.25 8.8V15.575C2.25 17.5356 3.83939 19.125 5.8 19.125H18.2C20.1606 19.125 21.75 17.5356 21.75 15.575V8.8ZM5.8 17.625C4.66782 17.625 3.75 16.7072 3.75 15.575V8.8C3.75 7.66782 4.66782 6.75 5.8 6.75H18.2C19.3322 6.75 20.25 7.66782 20.25 8.8V15.575C20.25 16.7072 19.3322 17.625 18.2 17.625H5.8Z" fill="currentColor"/>
<path fill-rule="evenodd" clip-rule="evenodd" d="M21.75 9.75H18.1875C16.8413 9.75 15.75 10.8413 15.75 12.1875C15.75 13.5337 16.8413 14.625 18.1875 14.625H21.75V9.75ZM20.25 11.25V13.125H18.1875C17.6697 13.125 17.25 12.7053 17.25 12.1875C17.25 11.6697 17.6697 11.25 18.1875 11.25H20.25Z" fill="currentColor"/>
</svg>
