<svg width="87" height="32" viewBox="0 0 87 32" fill="none" xmlns="http://www.w3.org/2000/svg">
<path d="M13.3433 14.1365C12.6203 14.8521 11.5305 14.7848 10.8444 14.0286C10.1933 13.3149 10.1862 12.1756 10.9093 11.4618C11.5981 10.7835 12.722 10.8135 13.3745 11.5296C14.0615 12.2834 14.0296 13.4565 13.3433 14.1365ZM19.5834 20.9917C18.8613 21.7055 17.7698 21.638 17.1156 20.9227C16.4321 20.1683 16.4611 19.0714 17.1835 18.3541C17.8699 17.6755 18.9613 17.669 19.6462 18.4216C20.299 19.1387 20.27 20.3114 19.5834 20.9917Z" fill="white"/>
<path d="M16.863 17.714C16.0032 18.5647 14.7028 18.482 13.9303 17.6331C13.1126 16.7374 13.1092 15.3836 13.9675 14.5347C14.7838 13.7264 16.1243 13.7634 16.9375 14.6597C17.7134 15.5119 17.6775 16.906 16.863 17.714Z" fill="white"/>
<path d="M10.4103 17.2508C9.86949 17.7844 8.98868 17.7269 8.47435 17.1616C7.96002 16.5945 7.98362 15.7151 8.52695 15.1799C9.06857 14.6433 9.94796 14.63 10.462 15.1953C10.9772 15.7604 10.9536 16.7142 10.4103 17.2508Z" fill="white"/>
<path d="M15.8589 23.2385C15.3181 23.7754 14.4728 23.7514 13.9594 23.1878C13.4436 22.6228 13.4322 21.7028 13.9756 21.1679C14.5163 20.6299 15.433 20.6583 15.9464 21.2222C16.461 21.7872 16.4013 22.7037 15.8589 23.2385Z" fill="white"/>
<path d="M9.10014 5.65887C8.86132 5.39724 8.87184 4.95664 9.1607 4.66982C9.41346 4.42004 9.83595 4.43011 10.0773 4.69352C10.352 4.99723 10.3415 5.43427 10.0864 5.68583C9.7987 5.97265 9.37621 5.9608 9.10014 5.65887Z" fill="white"/>
<path d="M4.43012 10.2199C4.19045 9.95647 4.20267 9.51943 4.45514 9.26787C4.74571 8.98075 5.16593 8.9929 5.40731 9.25453C5.68082 9.55676 5.6703 9.99707 5.38059 10.2839C5.12726 10.5337 4.70477 10.5239 4.43012 10.2199Z" fill="white"/>
<path d="M2.83258 7.91629C2.63668 7.70206 2.64635 7.34443 2.85106 7.14027C3.08761 6.9056 3.43163 6.9139 3.62695 7.13168C3.85128 7.37643 3.84132 7.73258 3.60506 7.96547C3.40007 8.16962 3.05605 8.16281 2.83258 7.91629Z" fill="white"/>
<path d="M7.06359 3.61666C6.86684 3.40065 6.87651 3.0445 7.08292 2.83857C7.31776 2.60567 7.66178 2.61604 7.85768 2.83027C8.08115 3.07679 8.07148 3.43443 7.83578 3.66732C7.63051 3.87148 7.28649 3.86318 7.06359 3.61666Z" fill="white"/>
<path d="M3.87828 4.50685C3.63775 4.24196 3.64998 3.80136 3.90103 3.55009C4.15378 3.30209 4.57798 3.31394 4.81993 3.57883C5.09117 3.87751 5.08008 4.31959 4.82732 4.56937C4.57457 4.81915 4.15208 4.80582 3.87828 4.50685Z" fill="white"/>
<path d="M11.2687 8.28143C10.8567 7.83076 10.9116 7.13563 11.3102 6.74244C11.7432 6.31399 12.3758 6.33058 12.7869 6.78155C13.1642 7.19815 13.1471 7.85802 12.7158 8.28499C12.3164 8.68144 11.6468 8.69832 11.2687 8.28143Z" fill="white"/>
<path d="M6.31653 13.1756C5.90598 12.7249 5.92304 12.0633 6.35548 11.6363C6.7538 11.2452 7.42251 11.2247 7.83391 11.6769C8.21034 12.0923 8.15945 12.7892 7.76113 13.1806C7.32726 13.6091 6.6941 13.5922 6.31653 13.1756Z" fill="white"/>
<path d="M5.78122 7.35129C5.40393 6.93646 5.45739 6.23927 5.85315 5.84607C6.2873 5.41762 6.92104 5.43599 7.29776 5.85141C7.71087 6.30208 7.69466 6.96343 7.25966 7.39188C6.86219 7.78507 6.19348 7.80374 5.78122 7.35129Z" fill="white"/>
<path d="M8.27126 10.5394C7.7595 9.97587 7.81693 9.06089 8.35798 8.52251C8.90301 7.98591 9.74828 8.01109 10.2606 8.57673C10.7755 9.1403 10.7883 10.0585 10.2444 10.5951C9.70165 11.1317 8.78701 11.1051 8.27126 10.5394Z" fill="white"/>
<path d="M25.1796 22.6961C25.4272 22.9527 25.8497 22.9491 26.1283 22.654C26.3746 22.3956 26.3711 21.9553 26.1235 21.7002C25.8383 21.4084 25.419 21.4101 25.1728 21.6697C24.8944 21.9636 24.8944 22.4024 25.1796 22.6961Z" fill="white"/>
<path d="M20.7059 27.4666C20.9555 27.7214 21.3763 27.7196 21.6228 27.4615C21.9042 27.1643 21.9011 26.7258 21.6549 26.4689C21.37 26.1788 20.9458 26.1821 20.6669 26.4757C20.421 26.7344 20.4244 27.1747 20.7059 27.4666Z" fill="white"/>
<path d="M22.8834 29.1793C23.0858 29.3867 23.429 29.3849 23.63 29.1758C23.86 28.936 23.8566 28.5769 23.6542 28.3689C23.4227 28.131 23.0796 28.131 22.8493 28.3725C22.6517 28.5834 22.6517 28.9414 22.8834 29.1793Z" fill="white"/>
<path d="M27.0958 24.8624C27.2982 25.0684 27.6434 25.0684 27.8424 24.8559C28.0724 24.6159 28.0693 24.2568 27.8683 24.0491C27.6368 23.8094 27.292 23.8127 27.0637 24.0556C26.8644 24.2651 26.8644 24.6245 27.0958 24.8624Z" fill="white"/>
<path d="M26.1768 28.1617C26.4279 28.4148 26.8504 28.4133 27.0963 28.1552C27.3408 27.8986 27.3391 27.4548 27.09 27.1999C26.8083 26.9096 26.3841 26.9111 26.1379 27.1694C25.8934 27.4275 25.8985 27.8699 26.1768 28.1617Z" fill="white"/>
<path d="M22.7088 20.3818C23.1313 20.8206 23.8002 20.7785 24.1855 20.3735C24.6063 19.9314 24.6031 19.2715 24.179 18.8345C23.7872 18.4312 23.1543 18.4345 22.7346 18.8769C22.3491 19.2834 22.3167 19.9821 22.7088 20.3818Z" fill="white"/>
<path d="M17.9106 25.4395C18.3348 25.878 18.968 25.8733 19.3907 25.4309C19.7746 25.0226 19.8053 24.329 19.3811 23.8904C18.989 23.489 18.3217 23.526 17.9365 23.934C17.5188 24.3779 17.5219 25.038 17.9106 25.4395Z" fill="white"/>
<path d="M23.4887 26.1189C23.8773 26.5222 24.5477 26.4801 24.9316 26.0754C25.354 25.6297 25.3492 24.9713 24.9591 24.5699C24.5349 24.1328 23.8998 24.1343 23.4807 24.5782C23.0935 24.9829 23.0628 25.6834 23.4887 26.1189Z" fill="white"/>
<path d="M20.4802 23.4563C21.0113 24.0047 21.8924 23.9623 22.42 23.4088C22.9449 22.8554 22.9381 21.9745 22.407 21.4263C21.8759 20.8775 20.9951 20.8455 20.4702 21.4008C19.9425 21.9561 19.9491 22.9093 20.4802 23.4563Z" fill="white"/>
<path d="M16.3448 11.2964C16.8793 10.7512 16.8565 9.83181 16.3351 9.27654C15.8105 8.71949 14.967 8.70971 14.4325 9.25491C13.8974 9.79832 13.8519 10.7145 14.3742 11.2715C14.8973 11.8283 15.8137 11.8398 16.3448 11.2964Z" fill="white"/>
<path d="M21.8798 17.1999C22.4143 16.6565 22.4254 15.7741 21.9057 15.2182C21.3811 14.6597 20.5003 14.6141 19.9658 15.1575C19.4316 15.7009 19.4219 16.6565 19.9433 17.2132C20.4645 17.7703 21.3453 17.7451 21.8798 17.1999Z" fill="white"/>
<path d="M17.1414 13.904C16.4565 13.1496 16.5193 12.0124 17.2449 11.3001C17.9315 10.6219 19.023 10.6151 19.7096 11.368C20.3573 12.0832 20.3283 13.2581 19.6417 13.9345C18.9195 14.6498 17.7956 14.6178 17.1414 13.904ZM10.5638 20.4046C9.87944 19.652 9.94426 18.5145 10.6309 17.8377C11.353 17.1224 12.4096 17.1509 13.0939 17.9038C13.7456 18.6194 13.7521 19.7583 13.0299 20.4721C12.3416 21.1524 11.216 21.1219 10.5638 20.4046Z" fill="white"/>
<path d="M25.2754 9.48047C25.5281 9.23068 25.9523 9.24402 26.2244 9.54269C26.4641 9.80788 26.451 10.2467 26.2017 10.4965C25.9117 10.7854 25.4892 10.7732 25.2495 10.5083C24.974 10.2076 24.9871 9.76729 25.2754 9.48047Z" fill="white"/>
<path d="M20.8969 4.61708C21.1493 4.3673 21.5738 4.37738 21.8135 4.64079C22.0887 4.94302 22.0759 5.37976 21.8232 5.6334C21.5349 5.92022 21.1107 5.90659 20.8369 5.60614C20.5972 5.33917 20.6086 4.90242 20.8969 4.61708Z" fill="white"/>
<path d="M23.1084 2.94976C23.314 2.7456 23.6589 2.75568 23.8548 2.96991C24.0782 3.21643 24.0703 3.57258 23.8613 3.77673C23.6282 4.01141 23.2847 3.99955 23.0598 3.75481C22.8639 3.5388 22.8736 3.18265 23.1084 2.94976Z" fill="white"/>
<path d="M27.2353 7.35777C27.4426 7.1551 27.786 7.16399 27.9819 7.37791C28.2037 7.62444 28.1957 7.98385 27.9899 8.18652C27.7534 8.41912 27.4102 8.40934 27.1867 8.1646C26.9922 7.95007 26.9991 7.59066 27.2353 7.35777Z" fill="white"/>
<path d="M26.3834 4.03965C26.6362 3.78809 27.0586 3.79994 27.2986 4.06335C27.54 4.32676 27.5269 4.76885 27.2742 5.01863C26.9859 5.30219 26.5617 5.29211 26.322 5.0287C26.0837 4.76677 26.0951 4.32469 26.3834 4.03965Z" fill="white"/>
<path d="M22.7601 11.7406C23.1909 11.314 23.8613 11.3694 24.2386 11.7845C24.648 12.2352 24.6321 12.8933 24.1979 13.3235C23.801 13.7167 23.1678 13.6983 22.755 13.2473C22.378 12.8343 22.3618 12.1338 22.7601 11.7406Z" fill="white"/>
<path d="M18.0633 6.58192C18.4957 6.15525 19.1289 6.17006 19.5417 6.62251C19.919 7.03763 19.9352 7.73305 19.5011 8.16328C19.103 8.55647 18.4357 8.50254 18.0585 8.08743C17.6488 7.63497 17.665 6.97511 18.0633 6.58192Z" fill="white"/>
<path d="M23.6488 6.02296C24.0489 5.62828 24.7179 5.68547 25.0968 6.09911C25.508 6.54978 25.4886 7.21113 25.0917 7.60461C24.6562 8.03307 24.023 8.01795 23.6133 7.56402C23.236 7.15038 23.2184 6.4517 23.6488 6.02296Z" fill="white"/>
<path d="M20.5896 8.61858C21.1321 8.08554 22.0115 8.1445 22.5264 8.70836C23.0398 9.27548 23.0154 10.1546 22.4743 10.6897C21.9319 11.2266 21.0525 11.2397 20.5376 10.6743C20.0247 10.1087 20.0489 9.15548 20.5896 8.61858Z" fill="white"/>
<path d="M8.92854 26.241C8.68232 26.5009 8.6863 26.9412 8.96834 27.2316C9.21768 27.4882 9.64046 27.4864 9.88583 27.2265C10.1667 26.9311 10.1636 26.4908 9.91568 26.2357C9.63222 25.9453 9.21115 25.9453 8.92854 26.241Z" fill="white"/>
<path d="M4.3493 21.5798C4.10649 21.8382 4.10649 22.2785 4.35555 22.5336C4.63987 22.8269 5.06065 22.8237 5.30772 22.5653C5.58777 22.2702 5.58294 21.8296 5.30204 21.536C5.05298 21.2794 4.63049 21.2847 4.3493 21.5798Z" fill="white"/>
<path d="M2.7069 23.848C2.50788 24.0608 2.50931 24.4166 2.71032 24.6258C2.9426 24.8658 3.28748 24.8623 3.48593 24.6513C3.71679 24.4116 3.71338 24.0525 3.48109 23.8143C3.27951 23.6069 2.93521 23.6086 2.7069 23.848Z" fill="white"/>
<path d="M6.85179 28.2406C6.65249 28.4515 6.65334 28.8077 6.85577 29.0169C7.08664 29.2548 7.43066 29.2533 7.63053 29.0438C7.85798 28.8009 7.85798 28.4432 7.62485 28.2071C7.42355 27.9973 7.0801 27.9973 6.85179 28.2406Z" fill="white"/>
<path d="M3.68595 27.2814C3.44229 27.5398 3.44229 27.9801 3.69163 28.2382C3.93842 28.4912 4.36262 28.4897 4.60883 28.2299C4.8849 27.9362 4.88405 27.4941 4.63812 27.2376C4.38934 26.9845 3.966 26.9881 3.68595 27.2814Z" fill="white"/>
<path d="M11.1494 23.6654C10.7292 24.1075 10.7681 24.8047 11.1576 25.2062C11.5841 25.6447 12.2167 25.6415 12.6361 25.1994C13.023 24.7911 13.019 24.1315 12.594 23.6942C12.2051 23.2906 11.5341 23.2586 11.1494 23.6654Z" fill="white"/>
<path d="M6.29675 18.6651C5.87653 19.109 5.88136 19.7688 6.30471 20.2059C6.6965 20.6074 7.36378 20.6396 7.78315 20.1976C8.16839 19.7907 8.13285 19.0935 7.74249 18.6921C7.31772 18.255 6.682 18.2583 6.29675 18.6651Z" fill="white"/>
<path d="M5.64633 24.477C5.25853 24.8838 5.2989 25.5822 5.68784 25.984C6.11289 26.4213 6.74606 26.4178 7.13245 26.013C7.55409 25.5656 7.55096 24.9075 7.12505 24.4687C6.73526 24.0687 6.06484 24.0349 5.64633 24.477Z" fill="white"/>
<path d="M8.19731 21.3415C7.67275 21.8968 7.71312 22.815 8.24422 23.3614C8.77618 23.9113 9.62229 23.903 10.1454 23.3495C10.6717 22.796 10.7033 21.8781 10.1722 21.3311C9.63935 20.783 8.72358 20.7898 8.19731 21.3415Z" fill="white"/>
<path d="M42.5226 22.2328H39.4019L37.0526 18.1218L35.8955 19.2729V22.2328H33.2656V9.33325H35.913V15.9658L38.8759 12.6952H42.1194L38.9636 16.0937L42.5226 22.2328ZM52.1653 18.0487H45.6258C45.6258 18.14 45.6083 18.3593 45.6609 18.6151C45.8713 19.7296 46.6252 20.424 47.7122 20.424C47.8699 20.424 48.2206 20.4057 48.5888 20.2595C49.5004 19.9306 49.9037 18.9623 50.0264 18.7247L52.0601 19.821C51.692 20.3874 51.4991 20.6432 51.2887 20.899C49.9387 22.4521 48.1855 22.58 47.5018 22.58C47.2212 22.58 46.5726 22.5617 45.8537 22.3242C43.82 21.6664 42.8733 19.8027 42.8733 17.6467C42.8733 17.062 42.9083 15.2897 44.0479 13.9194C44.609 13.2616 45.5732 12.4028 47.5719 12.4028C48.1855 12.4028 50.0089 12.4759 51.1485 14.1386C52.1829 15.6186 52.1478 17.5919 52.1653 18.0487V18.0487ZM49.3777 16.2946C49.3426 15.984 49.29 15.0156 48.3784 14.5954C48.0102 14.4127 47.7121 14.4127 47.5544 14.4127C46.4849 14.4127 45.994 15.2349 45.8537 15.5638C45.7836 15.7282 45.7135 15.9292 45.6434 16.2946H49.3777V16.2946ZM67.0502 22.2328H64.3677V17.2265C64.3677 16.2398 64.3677 15.6734 64.1223 15.2714C63.9119 14.906 63.4911 14.7233 63.1054 14.7233C62.8775 14.7233 62.2463 14.7781 61.9132 15.3993C61.7028 15.783 61.7204 16.185 61.7204 17.0438V22.2328H59.0379V16.5687C59.0379 15.6551 58.9152 15.2532 58.512 14.9791C58.2841 14.8147 58.0035 14.7416 57.723 14.7416C57.6003 14.7416 57.2497 14.7416 56.9516 14.9791C56.3906 15.4176 56.3731 16.1667 56.3731 16.788V22.2328H53.7082V12.6952H56.3731L56.3906 13.6818C56.5484 13.4808 56.6536 13.3529 56.8464 13.1885C57.1971 12.8962 57.8633 12.4394 58.9678 12.4394C59.1782 12.4394 60.1249 12.4577 60.7912 12.8962C61.0717 13.0789 61.2996 13.3164 61.5275 13.5539C61.8606 13.2616 61.9834 13.1702 62.1762 13.0423C62.4918 12.8414 63.2457 12.4394 64.245 12.4394C64.5606 12.4394 65.8404 12.4577 66.5943 13.4808C67.0326 14.0473 67.0502 14.6502 67.0502 16.0206V22.2328V22.2328ZM78.0954 18.0487H71.5559C71.5559 18.14 71.5384 18.3593 71.591 18.6151C71.8014 19.7296 72.5553 20.424 73.6423 20.424C73.8001 20.424 74.1507 20.4057 74.5189 20.2595C75.4305 19.9306 75.8338 18.9623 75.9565 18.7247L77.9902 19.821C77.6221 20.3874 77.4292 20.6432 77.2188 20.899C75.8688 22.4521 74.1156 22.58 73.4319 22.58C73.1514 22.58 72.5027 22.5617 71.7838 22.3242C69.7501 21.6664 68.8034 19.8027 68.8034 17.6467C68.8034 17.062 68.8384 15.2897 69.978 13.9194C70.5391 13.2616 71.5033 12.4028 73.502 12.4028C74.1156 12.4028 75.939 12.4759 77.0786 14.1386C78.113 15.6186 78.0779 17.5919 78.0954 18.0487V18.0487ZM75.3078 16.2946C75.2728 15.984 75.2202 15.0156 74.3085 14.5954C73.9403 14.4127 73.6423 14.4127 73.4845 14.4127C72.415 14.4127 71.9241 15.2349 71.7838 15.5638C71.7137 15.7282 71.6436 15.9292 71.5735 16.2946H75.3078V16.2946ZM84.4421 14.6502H82.6538V18.9257C82.6538 19.3094 82.6363 19.5287 82.7239 19.6931C82.8817 20.0037 83.3025 20.0037 83.3551 20.0037C83.6707 20.0037 83.9863 19.9854 84.3018 19.9854V22.1597C84.1265 22.1963 83.4954 22.3059 82.8817 22.3059C82.6889 22.3059 82.496 22.3059 82.3207 22.2876C82.0752 22.2694 81.2688 22.2876 80.6551 21.703C79.9539 21.0635 79.9889 20.0951 79.9889 19.2181V14.6319H78.6565V12.9144H79.9889V9.93621H82.6538V12.9327H84.4421V14.6502Z" fill="white"/>
</svg>
